<svg width="484" height="83" viewBox="0 0 484 83" fill="none" xmlns="http://www.w3.org/2000/svg">
<path d="M377.656 31.3747C385.781 31.7497 393.407 27.251 396.782 19.876C400.032 12.876 403.531 5.49972 403.531 4.99972C403.531 0.249724 415.031 -1.99903 417.656 2.25097C432.531 26.876 457.906 51.376 473.531 63.001C496.906 80.501 473.281 84.2497 444.406 81.2497C424.656 79.2497 400.781 79.7497 371.406 82.7497C362.655 83.6247 362.655 81.626 371.656 68.626C382.406 53.251 382.906 52.1247 379.531 51.3747C355.03 46.6247 332.405 48.7497 314.155 54.3747C304.53 57.3747 304.157 57.2497 305.282 51.2497C309.907 27.3747 379.156 31.1247 377.656 31.3747Z" fill="black"/>
<path d="M197.905 51.8757C208.28 51.8757 254.907 46.8757 262.532 44.8757C270.907 42.7507 273.53 42.6257 273.53 44.3757C273.53 57.3757 258.28 63.2507 214.155 67.3757C185.655 70.1257 179.78 70.0007 179.78 66.7507C179.78 58.7507 188.03 51.8757 197.905 51.8757Z" fill="black"/>
<path d="M93.4066 44.6258C106.032 47.2508 117.78 49.1258 134.155 51.3758C183.155 58.3758 153.78 68.7508 146.28 68.6258C113.905 68.1258 84.0303 62.8758 81.9053 60.7508C78.9053 57.7508 88.9066 43.6258 93.4066 44.6258Z" fill="black"/>
<path d="M16.0317 19.1261C50.4067 32.2511 67.4067 42.3761 63.4067 47.5011C56.2817 56.5011 1.15672 40.1261 0.0317154 28.6261C-0.593285 21.2511 8.1567 16.0011 16.0317 19.1261Z" fill="black"/>
</svg>
