<svg width="463" height="84" viewBox="0 0 463 84" fill="none" xmlns="http://www.w3.org/2000/svg">
<path fill-rule="evenodd" clip-rule="evenodd" d="M397.719 3.36997C409.969 23.745 432.218 47.745 453.218 63.495C476.593 80.995 453.093 84.745 424.093 81.745C404.343 79.745 380.468 80.12 351.093 83.245C342.843 84.12 342.468 81.995 348.843 72.62C364.718 49.495 364.719 51.745 348.969 50.62C335.594 49.62 308.969 52.245 258.969 59.495C242.344 61.87 188.593 69.12 176.218 70.745C118.968 78.62 57.5928 70.37 16.9678 49.245C-14.7822 32.745 3.0928 18.745 29.2178 31.745C60.8428 47.62 102.093 56.245 146.343 56.245C163.093 56.245 177.968 54.495 260.093 43.12C346.218 31.12 346.719 32.495 370.219 33.995C372.344 29.62 380.843 11.37 382.343 7.61996C385.343 -0.255039 394.094 -2.63003 397.719 3.36997Z" fill="black"/>
</svg>
