<svg width="24" height="24" viewBox="0 0 24 24" fill="none" xmlns="http://www.w3.org/2000/svg">
<path fill-rule="evenodd" clip-rule="evenodd" d="M5 1C3.93913 1 2.92172 1.42143 2.17157 2.17157C1.42143 2.92172 1 3.93913 1 5V19C1 20.0609 1.42143 21.0783 2.17157 21.8284C2.92172 22.5786 3.93913 23 5 23H19C20.0609 23 21.0783 22.5786 21.8284 21.8284C22.5786 21.0783 23 20.0609 23 19V5C23 3.93913 22.5786 2.92172 21.8284 2.17157C21.0783 1.42143 20.0609 1 19 1H5ZM19.421 13.097C19.262 14.1726 18.8711 15.2008 18.2754 16.1105C17.6797 17.0201 16.8934 17.7893 15.971 18.365C15.556 16.389 15.025 14.538 14.344 12.772C15.741 12.59 17.384 12.694 19.421 13.097ZM7.271 17.821C9.261 15.104 11.01 13.551 13.345 12.961C14.07 14.811 14.625 16.756 15.05 18.854C14.09 19.2813 13.0508 19.5014 12 19.5C10.2768 19.5023 8.60569 18.9088 7.27 17.82L7.271 17.821ZM19.501 12.094C17.335 11.674 15.534 11.571 13.958 11.818C13.748 11.323 13.526 10.835 13.29 10.352C15.116 9.67 16.538 8.674 17.789 7.23C18.9186 8.59687 19.526 10.321 19.501 12.094ZM12.961 12.028C12.7633 11.5704 12.5539 11.1179 12.333 10.671C10.28 11.277 7.755 11.565 4.506 11.715C4.46677 12.7079 4.62592 13.6986 4.97414 14.6292C5.32236 15.5599 5.85265 16.4117 6.534 17.135C8.517 14.446 10.397 12.719 12.96 12.028H12.961ZM17.099 6.498C15.916 7.888 14.586 8.818 12.834 9.454C11.9665 7.82553 10.9594 6.27538 9.824 4.821C10.5299 4.60755 11.2635 4.49938 12.001 4.5C13.969 4.5 15.761 5.257 17.099 6.498ZM11.866 9.765C10.9954 8.15565 9.98488 6.62607 8.846 5.194C7.748 5.70393 6.78956 6.47174 6.05234 7.43201C5.31511 8.39228 4.82097 9.51654 4.612 10.709C7.666 10.562 9.995 10.291 11.866 9.765Z" fill="black"/>
</svg>
