<svg width="24" height="24" viewBox="0 0 24 24" fill="none" xmlns="http://www.w3.org/2000/svg">
<path fill-rule="evenodd" clip-rule="evenodd" d="M5 1C3.93913 1 2.92172 1.42143 2.17157 2.17157C1.42143 2.92172 1 3.93913 1 5V19C1 20.0609 1.42143 21.0783 2.17157 21.8284C2.92172 22.5786 3.93913 23 5 23H19C20.0609 23 21.0783 22.5786 21.8284 21.8284C22.5786 21.0783 23 20.0609 23 19V5C23 3.93913 22.5786 2.92172 21.8284 2.17157C21.0783 1.42143 20.0609 1 19 1H5ZM6.815 6.11C8.26138 4.88015 10.0984 4.20552 11.997 4.207C13.8957 4.20452 15.7332 4.87826 17.1802 6.10749C18.6273 7.33671 19.5893 9.04107 19.8939 10.9152C20.1985 12.7892 19.8258 14.7106 18.8425 16.3348C17.8593 17.959 16.3297 19.18 14.528 19.779C14.123 19.856 13.993 19.62 13.993 19.407V17.195C14.0127 16.9247 13.9742 16.6533 13.88 16.3992C13.7858 16.1451 13.6381 15.9141 13.447 15.722C15.227 15.525 17.095 14.851 17.095 11.78C17.1075 10.9855 16.8131 10.2168 16.273 9.634C16.5165 8.94485 16.4879 8.18877 16.193 7.52C16.193 7.52 15.527 7.306 13.999 8.34C12.6892 7.98055 11.3068 7.98055 9.997 8.34C8.472 7.306 7.8 7.52 7.8 7.52C7.50547 8.18896 7.47757 8.94515 7.722 9.634C7.18242 10.2164 6.88771 10.9841 6.899 11.778C6.899 14.841 8.765 15.526 10.539 15.728C10.2483 16.0112 10.0682 16.3889 10.031 16.793C9.83499 16.9031 9.6191 16.9733 9.39582 16.9995C9.17253 17.0257 8.94627 17.0074 8.73009 16.9456C8.51392 16.8839 8.31212 16.7799 8.13634 16.6398C7.96057 16.4996 7.8143 16.326 7.706 16.129C7.57814 15.9076 7.4014 15.7184 7.18927 15.5758C6.97714 15.4332 6.73523 15.3409 6.482 15.306C6.482 15.306 5.702 15.296 6.428 15.793C6.854 16.064 7.168 16.479 7.315 16.961C7.315 16.961 7.774 18.496 9.997 18.014C10 18.518 9.999 18.943 9.997 19.204V19.404C9.997 19.614 9.871 19.849 9.472 19.779C8.12707 19.3321 6.9252 18.5356 5.98964 17.4711C5.05408 16.4065 4.4185 15.1123 4.14808 13.7211C3.87766 12.33 3.98213 10.8919 4.45078 9.55439C4.91944 8.21691 5.7354 7.02814 6.815 6.11Z" fill="black"/>
</svg>
