<svg width="24" height="24" viewBox="0 0 24 24" fill="none" xmlns="http://www.w3.org/2000/svg">
<path fill-rule="evenodd" clip-rule="evenodd" d="M5 1C3.93913 1 2.92172 1.42143 2.17157 2.17157C1.42143 2.92172 1 3.93913 1 5V19C1 20.0609 1.42143 21.0783 2.17157 21.8284C2.92172 22.5786 3.93913 23 5 23H19C20.0609 23 21.0783 22.5786 21.8284 21.8284C22.5786 21.0783 23 20.0609 23 19V5C23 3.93913 22.5786 2.92172 21.8284 2.17157C21.0783 1.42143 20.0609 1 19 1H5ZM6.205 7.91C6.65719 7.91 7.09087 7.73037 7.41062 7.41062C7.73037 7.09087 7.91 6.65719 7.91 6.205C7.91 5.75281 7.73037 5.31913 7.41062 4.99938C7.09087 4.67963 6.65719 4.5 6.205 4.5C5.75281 4.5 5.31913 4.67963 4.99938 4.99938C4.67963 5.31913 4.5 5.75281 4.5 6.205C4.5 6.65719 4.67963 7.09087 4.99938 7.41062C5.31913 7.73037 5.75281 7.91 6.205 7.91ZM7.909 19.5V9.273H4.5V19.5H7.909ZM12.341 9.273H9.273V19.5H12.341V13.33C12.736 12.688 13.418 12 14.386 12C15.75 12 16.091 13.364 16.091 14.046V19.5H19.5V14.046C19.5 12.218 18.703 9.273 15.75 9.273C13.872 9.273 12.83 9.958 12.34 10.6L12.341 9.273Z" fill="black"/>
</svg>
